<?xml version="1.0" encoding="utf-8"?>
<!-- Generator: Adobe Illustrator 19.2.1, SVG Export Plug-In . SVG Version: 6.00 Build 0)  -->
<svg version="1.1" id="layer" xmlns="http://www.w3.org/2000/svg" xmlns:xlink="http://www.w3.org/1999/xlink" x="0px" y="0px"
	 viewBox="0 0 652 652" style="enable-background:new 0 0 652 652;" xml:space="preserve">
<style type="text/css">
	.st0{fill:#E50020;}
	.st1{fill:#FFFFFF;}
	.st2{clip-path:url(#SVGID_2_);fill:url(#SVGID_3_);}
	.st3{clip-path:url(#SVGID_5_);fill:url(#SVGID_6_);}
</style>
<g>
	<path class="st0" d="M610.4,561.8c0,13.5-10,24.5-22.3,24.5l-526.4,0c-12.3,0-21.8-7.6-21.8-21.1l-0.5-65.6
		c0-13.6,10-24.5,22.3-24.5l526.4,0c12.3,0,22.3,11,22.3,24.5V561.8z"/>
	<path class="st1" d="M117.8,538.4c1.5,1.9,3.3,5.5,3.3,7.9c0,1.4-0.6,3-3,4.5c-2.4,1.7-6.9,3.3-12,3.3c-9.1,0-22.1-4.3-22.1-21.9
		c0-17.6,12.9-22.2,22.1-22.2c4.3,0,8.2,1,11,2.6c2.6,1.5,3.7,3.2,3.7,5.1c0,2.1-1.4,4.9-3.3,7.5c-2.6-2.4-5.6-4.2-9.5-4.2
		c-5.9,0-8.8,4.3-8.8,11.1c0,6.9,2.9,10.5,8.8,10.5C112.5,542.7,115.9,540.2,117.8,538.4"/>
	<path class="st1" d="M165.6,543.4c0,3.6,0.5,7.2,1.6,9.5c-2.8,0.9-4.4,1.1-7.2,1.1c-4.5,0-6.9-1.5-7.6-4.3c-2.2,2.3-6.1,4.3-12,4.3
		c-6.8,0-13.6-3.6-13.6-13.1c0-13.6,16.9-14.5,24.4-14.5v-1.9c0-3.7-2.4-4.6-6.3-4.6c-4.4,0-8.1,1.4-12.5,3.6c-1.9-2.3-3-5.1-3-6.4
		c0-3.4,7.4-7,18.1-7c13.2,0,18.2,5.1,18.2,16.3V543.4z M151.3,533.6c-5.2,0.3-10.9,1-10.9,6.3c0,2.9,1.9,4.9,5.2,4.9
		c3,0,5.6-1.7,5.6-3.5V533.6z"/>
	<path class="st1" d="M208,516.6c0,1.7-1.4,4.8-3.1,7.2c-3-2.3-7-3.8-11.2-3.8c-2.4,0-4.5,0.7-4.5,2.7c0,6.7,19.6,1.5,19.6,16.8
		c0,9-6.9,14.6-19.1,14.6c-4.3,0-15.5-0.7-15.5-7.5c0-2.5,1.6-5.2,3.1-7.5c2.3,2.2,7,5,11.6,5c3,0,5.1-1.4,5.1-3.6
		c0-6.6-19.8-1.8-19.8-17c0-9.1,7.9-13.5,17.9-13.5C200.1,510,208,512.4,208,516.6"/>
	<path class="st1" d="M241.7,527.8c0-3.6-0.3-6-4.2-6c-3.2,0-5.2,1.6-5.2,3.4v27.6h-15.2v-57.4c1.7-0.3,3.9-0.5,5.6-0.5
		c4.8,0,9.5,1.4,9.5,8.1v12.1c1.6-2.3,5.1-5,11.5-5c10.7,0,13.2,7,13.2,17.1v25.6h-15.2V527.8z"/>
	<path class="st1" d="M298.6,519.8c-3-4.2-4.2-7.5-4.2-11.2c0-9,8.1-13.7,16.9-13.7c8.8,0,17.3,4.7,17.3,13
		c0,7.6-5.9,11.6-12.5,14.6l8.4,10.2c2.4-2.8,4.6-5.7,6.3-8.4c3.6,2.3,7,4.9,7,8.8c0,1.1-0.3,2.3-1,3.7c-1,1.9-2.5,3.8-4.3,5.6
		l7.9,9.4c-2.6,1.7-5,2.5-8.2,2.5c-4.6,0-7.6-1.9-9.9-4.7c-5.7,2.9-12.3,4.7-18.8,4.7c-12,0-20.3-6-20.3-16.4
		C283.4,528,290.8,523.1,298.6,519.8 M315.4,540.6l-10.6-13.1c-3.8,2-6.6,4.4-6.6,8.1c0,3.9,2.2,7.6,8.3,7.6
		C309.6,543.1,312.6,542.2,315.4,540.6 M310,515.2c3.7-1.7,6.3-3.5,6.3-6.2c0-2.2-1.7-4.7-4.9-4.7c-3,0-4.7,2.2-4.7,4.7
		C306.8,510.9,307.8,512.6,310,515.2"/>
	<path class="st1" d="M395.9,538.4c1.5,1.9,3.3,5.5,3.3,7.9c0,1.4-0.6,3-3,4.5c-2.4,1.7-6.9,3.3-12,3.3c-9.1,0-22.1-4.3-22.1-21.9
		c0-17.6,13-22.2,22.1-22.2c4.2,0,8.2,1,11,2.6c2.6,1.5,3.7,3.2,3.7,5.1c0,2.1-1.4,4.9-3.3,7.5c-2.6-2.4-5.6-4.2-9.5-4.2
		c-5.9,0-8.8,4.3-8.8,11.1c0,6.9,2.9,10.5,8.8,10.5C390.6,542.7,394,540.2,395.9,538.4"/>
	<path class="st1" d="M443.7,543.4c0,3.6,0.5,7.2,1.6,9.5c-2.8,0.9-4.4,1.1-7.2,1.1c-4.5,0-6.9-1.5-7.6-4.3c-2.2,2.3-6.1,4.3-12,4.3
		c-6.8,0-13.6-3.6-13.6-13.1c0-13.6,16.9-14.5,24.4-14.5v-1.9c0-3.7-2.4-4.6-6.4-4.6c-4.4,0-8.1,1.4-12.5,3.6c-1.9-2.3-3-5.1-3-6.4
		c0-3.4,7.4-7,18.1-7c13.2,0,18.2,5.1,18.2,16.3V543.4z M429.4,533.6c-5.2,0.3-10.9,1-10.9,6.3c0,2.9,1.9,4.9,5.2,4.9
		c3,0,5.6-1.7,5.6-3.5V533.6z"/>
	<path class="st1" d="M454.5,511.4c1.7-0.3,3.9-0.5,5.6-0.5c4.7,0,7.7,1.4,8.9,4.3c1.2-2.1,4.9-5.2,9.6-5.2c3.1,0,6.9,1,6.9,4.6
		c0,3.1-1.9,8.1-3.5,11.1c-2.3-1.9-4.3-2.8-6.9-2.8c-3.2,0-5.3,1.9-5.3,4.5v25.3h-15.2V511.4z"/>
	<path class="st1" d="M491.3,511.4c1.7-0.3,3.9-0.5,5.6-0.5c4.7,0,7.7,1.4,8.9,4.3c1.2-2.1,4.9-5.2,9.5-5.2c3.1,0,7,1,7,4.6
		c0,3.1-1.9,8.1-3.5,11.1c-2.3-1.9-4.3-2.8-6.9-2.8c-3.2,0-5.3,1.9-5.3,4.5v25.3h-15.2V511.4z"/>
	<path class="st1" d="M544.3,519.6l4.6,19.2l4.8-19.2c1.6-6.1,3.6-8.7,9.6-8.7c2.4,0,5,0.5,7.3,1.4l-14.3,41.5
		c-4.4,12.6-9.6,17.4-20,17.4c-5.4,0-9.6-1.4-9.6-5.8c0-2,0.9-4.3,2.8-7.6c1.7,1.2,3.9,1.7,6,1.7c3,0,5.3-1.1,7.4-5.1l-16-42.1
		c2.3-0.8,5.2-1.4,8.1-1.4C541.2,510.9,542.9,513.8,544.3,519.6"/>
	<path class="st0" d="M423,442.9c5.8,0,12.9-3,12.9-3l-7.3-25.9c-2.7-9.5-7.2-14.7-13.4-16.7V397c7.9-2.9,17.7-11.7,17.7-22.4
		c0-18.4-14-26.2-42.1-26.2c-11.7,0-22.9,0.7-29.9,2v89.4h22v-36.5h6.5c10.3,0,15.2,4.3,18.1,15.3l4.4,16.1
		C413.5,441.1,418.1,442.9,423,442.9 M391.5,389.9h-8.7V364c1.8-0.6,5.3-1.1,9.8-1.1c11.8,0,18.1,5.1,18.1,13.8
		C410.7,385.2,403.6,389.9,391.5,389.9 M487.7,441.3c30.3,0,46.7-19.8,46.7-47.9c0-25.2-15.2-45.9-45-45.9
		c-30.5,0-46.5,20.5-46.5,46C442.9,417.5,457.2,441.3,487.7,441.3 M488.7,424.6c-16.1,0-22.7-14.4-22.7-31.5
		c0-17,6.4-28.8,22.7-28.8c16.2,0,22.5,13.4,22.5,29.8C511.3,412,504.8,424.6,488.7,424.6 M144.3,401.4h28.1v-16.9h-28.1v-18.6H176
		c6,0,8.4-2.3,8.4-10.8c0-1.9-0.1-4.3-0.4-6.1h-61.2v90.9h63.3c0.3-1.4,0.4-4.2,0.4-6.1c0-8.6-2.4-10.8-8.4-10.8h-33.8V401.4z
		 M199.6,439.9h61.6c0.3-1.8,0.4-4.1,0.4-6.1c0-8.6-2.4-10.8-8.4-10.8h-31.7v-65.1c0-7.9-5.4-10.3-11.5-10.3
		c-4.6,0-7.3,0.9-10.4,2.6V439.9z M574,441.3c25.8,0,36.8-13,36.8-27.4c0-14.5-8.3-21.7-27.1-28.3c-13.3-4.7-18.3-5.7-18.3-12.5
		c0-4.6,3.9-8.9,17-8.9c10,0,17.3,3.5,21.7,5.8c0,0,3.8-6.4,3.8-11.3c0-3.2-1.7-6.1-6.3-7.8c-4.6-1.6-11.9-3.4-23.6-3.4
		c-23.4,0-35.4,10.7-35.4,25.4c0,14.9,9.8,22,26.9,27c14.6,4.3,18.3,8.3,18.3,14.6c0,6-3.4,9.8-17.5,9.8c-10.9,0-18.6-3.8-24.7-7.1
		c0,0-4.1,8.1-4.1,12.4c0,4,2.3,6,6.3,7.7C553.2,439.8,561.5,441.3,574,441.3 M73.5,441.3c25.8,0,36.8-13,36.8-27.4
		c0-14.5-8.3-21.7-27.1-28.3c-13.3-4.7-18.2-5.7-18.2-12.5c0-4.6,3.9-8.9,17-8.9c10,0,17.3,3.5,21.7,5.8c0,0,3.8-6.4,3.8-11.3
		c0-3.2-1.7-6.1-6.3-7.8c-4.6-1.6-11.9-3.4-23.6-3.4c-23.4,0-35.3,10.7-35.3,25.4c0,14.9,9.7,22,26.9,27
		c14.6,4.3,18.3,8.3,18.3,14.6c0,6-3.4,9.8-17.5,9.8c-10.9,0-18.6-3.8-24.7-7.1c0,0-4.1,8.1-4.1,12.4c0,4,2.3,6,6.3,7.7
		C52.8,439.8,61.1,441.3,73.5,441.3 M312.2,441.3c11.7,0,23.2-2.3,30.5-4.8v-47.1h-34.3v15.2h13.8V423c-2.2,1-5.9,1.5-9.3,1.5
		c-18.5,0-29.6-12.5-29.6-30.4c0-17.3,10.3-29.9,28.5-29.9c7.5,0,14.6,1.8,22.5,5.7c1.9-3.9,4.1-10.2,4.1-13.9c0-3-1.8-5.4-5.9-6.5
		c-4.8-1.4-11.3-2.1-17.7-2.1c-34,0-54.5,18.3-54.5,47.9c0,13,5.3,25.4,14,33.2C283.3,437,295.1,441.3,312.2,441.3"/>
</g>
<g>
	<defs>
		<path id="SVGID_1_" d="M282.1,278.7c-44.9-1.7-100.8-154.3-57.4-176c28.2-14.2,208.7,8.8,220.6,43.1
			c16.8,48.3-116.4,133-161.8,133C283,278.7,282.6,278.7,282.1,278.7 M211.2,98c-41.8,35,5.9,188.9,64.9,198.9
			c82.6,14,208.2-96.4,184.3-150.2c-17.7-40-116.8-60.3-185.6-60.3C244.8,86.3,220.5,90.2,211.2,98"/>
	</defs>
	<clipPath id="SVGID_2_">
		<use xlink:href="#SVGID_1_"  style="overflow:visible;"/>
	</clipPath>
	
		<linearGradient id="SVGID_3_" gradientUnits="userSpaceOnUse" x1="35.9677" y1="710.8325" x2="42.908" y2="710.8325" gradientTransform="matrix(-12.0986 19.1715 -19.1715 -12.0986 14471.2891 7979.9155)">
		<stop  offset="0" style="stop-color:#F4B0A1"/>
		<stop  offset="2.722089e-002" style="stop-color:#F3A196"/>
		<stop  offset="0.123" style="stop-color:#EF7072"/>
		<stop  offset="0.2181" style="stop-color:#EB4855"/>
		<stop  offset="0.3109" style="stop-color:#E8283E"/>
		<stop  offset="0.4006" style="stop-color:#E7122D"/>
		<stop  offset="0.4859" style="stop-color:#E50523"/>
		<stop  offset="0.5622" style="stop-color:#E50020"/>
		<stop  offset="0.702" style="stop-color:#E2011F"/>
		<stop  offset="0.8213" style="stop-color:#D7021C"/>
		<stop  offset="0.9327" style="stop-color:#C60517"/>
		<stop  offset="1" style="stop-color:#B70813"/>
	</linearGradient>
	<polygon class="st2" points="259.1,-55.8 68,246.9 394.6,453 585.7,150.3 	"/>
</g>
<g>
	<defs>
		<path id="SVGID_4_" d="M222.1,98.1c-52.2,27,15.3,188.1,69.6,190.7c53.3,2.6,179.6-89.6,157.8-140.6
			c-13.8-32.1-111.3-58.5-177.8-58.5C251,89.7,233.3,92.3,222.1,98.1"/>
	</defs>
	<clipPath id="SVGID_5_">
		<use xlink:href="#SVGID_4_"  style="overflow:visible;"/>
	</clipPath>
	
		<radialGradient id="SVGID_6_" cx="39.168" cy="720.7661" r="1" gradientTransform="matrix(-179.2834 32.5985 27.3085 150.2227 -12271.1895 -109424.0234)" gradientUnits="userSpaceOnUse">
		<stop  offset="0" style="stop-color:#F4B0A1"/>
		<stop  offset="2.722089e-002" style="stop-color:#F3A196"/>
		<stop  offset="0.123" style="stop-color:#EF7072"/>
		<stop  offset="0.2181" style="stop-color:#EB4855"/>
		<stop  offset="0.3109" style="stop-color:#E8283E"/>
		<stop  offset="0.4006" style="stop-color:#E7122D"/>
		<stop  offset="0.4859" style="stop-color:#E50523"/>
		<stop  offset="0.5622" style="stop-color:#E50020"/>
		<stop  offset="0.7387" style="stop-color:#E2021F"/>
		<stop  offset="0.8891" style="stop-color:#D7081D"/>
		<stop  offset="1" style="stop-color:#CA101A"/>
	</radialGradient>
	<polygon class="st3" points="506.9,285 179.6,344.5 134.4,96.2 461.7,36.7 	"/>
</g>
<g>
	<path class="st1" d="M446.3,129.1c-11.1,3.3-28.1,8.2-51.4,14.2c-38.6,9.9-64.2,8.8-72.7,8.5c-3.4-0.1-4.7-2.2-6.7-5.5
		c-2.4-3.9-5.3-8.8-13.5-11.9c-4.5-1.7-8-2.2-32.4-2.6l-20-0.5c-15.8-0.5-20-0.6-21.6,1.3c-0.8,0.9-0.6,2.1-0.6,2.4
		c0.7,4.5,6.5,9.8,45.5,10.4c27.3,0.5,30.9,6.4,34.6,12.7l1.7,2.7l1.6,2.6c1.9,3.3,3.9,6.7,9.3,7.5c5.7,0.8,28.1-3.2,68.8-10.6
		l16.1-2.9c22.6-4.1,41.1-9.5,53.2-15.3C455.2,137.5,451.2,133.2,446.3,129.1"/>
	<path class="st1" d="M461.8,150.2c-13,8.6-56,32.5-131.6,45.2c-59.1,9.9-114.9,2.5-127.3,1.1c1.3,4.8,2.8,9.6,4.4,14.4
		c10.6,4.8,49,16.7,82.7,20.3c37,4,36.9-7.6,37.9-10.8c1-3.3,4.3-6.6,8.3-7.7c4-1.1,18.6,1.1,67.9-14.7c32.5-10.4,51-25.5,59.4-35.6
		C463.5,158.1,463,154,461.8,150.2"/>
	<path class="st1" d="M225.7,178.3c-0.1,0.7,0,2,1.5,3c2.8,1.7,24.4,8.9,48.5,6.6c23-2.2,28.5-4.6,30.1-8c0.4-0.7,1-1.9,0.5-3.8
		c-0.1-0.5-0.3-1-0.5-1.4c-1.6-3.8-4.7-3-7.5-2.3c-0.4,0.1-2.5,0.7-2.5,0.7c-4.1,1.2-12.6,3.8-31.2,4.2c-15.9,0.4-26-1.6-30.8-2.6
		l-4-0.5C228.4,174.4,226.1,176.2,225.7,178.3 M306.3,175.9L306.3,175.9L306.3,175.9z"/>
	<path class="st1" d="M229.7,155.4l-0.5,1.9l0.1,0.6c0.2,1.4,0.6,4.3,4.7,4.9l1.2,0.2c4.7,0.7,14.6,2.1,30.8,2l15.5,0.1
		c8,0.1,11,0.1,12.1-0.8c1.5-1.2,1.6-1.5,1.5-3l0-0.9c-0.1-3.7-3.8-4.3-7.4-4.3l-5.3,0l-21.1-0.3c-7.9-0.4-16.4-1.5-22-2.2l-5.7-0.6
		C232.3,153.1,230.5,154.2,229.7,155.4"/>
</g>
</svg>
